<svg width="912" height="912" viewBox="0 0 912 912" fill="none" xmlns="http://www.w3.org/2000/svg">
<path d="M691.141 65.0501C707.827 47.2841 728.807 37.4623 753.03 38.0227C783.919 38.7375 808.903 51.6453 825.177 79.1682C845.105 112.869 840.595 155.508 813.695 183.902C805.92 192.108 796.637 198.327 785.999 202.28C782.526 203.57 781.307 205.075 781.918 209.22C787.148 244.657 792.062 280.141 797.017 315.618C800.151 338.054 803.24 360.496 806.224 382.952C806.654 386.188 807.818 387.979 811.186 388.767C825.467 392.107 838.768 397.594 849.972 407.429C864.675 420.336 872.189 436.67 873.255 456.124C874.195 473.26 871.371 489.577 861.211 503.733C843.785 528.012 819.786 537.738 790.341 534.488C771.238 532.379 755.549 523.622 742.886 509.372C740.36 506.53 738.34 506.6 735.162 507.959C676.033 533.249 616.968 558.695 557.599 583.407C545.929 588.264 539.217 594.177 536.278 607.468C527.206 648.486 516.34 689.108 505.987 729.836C505.059 733.486 505.751 735.905 508.415 738.222C512.064 741.395 515.719 744.575 519.174 747.954C530.406 758.941 536.989 772.341 539.526 788.271C546.6 830.636 514.781 870.066 472.072 873.216C435.839 875.888 404.239 851.98 395.47 818.761C389.991 798.007 393.248 778.42 404.669 760.247C406.264 757.709 407.762 754.899 409.974 752.998C418.06 746.052 417.7 739.337 412.487 730.218C400.901 709.952 390.573 688.959 379.887 668.183C378.073 664.655 376.078 663.656 372.019 664.323C351.834 667.637 333.32 663.036 316.623 651.293C313.739 649.264 311.732 649.63 309.122 651.682C298.503 660.028 287.822 668.301 276.989 676.363C273.538 678.931 274.05 681.789 274.793 685.217C279.411 706.52 274.46 725.239 258.059 739.774C242.273 753.763 223.573 756.797 203.876 749.807C184.072 742.779 172.677 728.279 168.449 707.49C162.374 677.621 186.635 642.445 225.539 643.949C233.113 644.241 240.4 646.153 247.038 649.83C250.347 651.664 252.575 651.211 255.452 648.912C265.74 640.689 276.145 632.597 286.762 624.807C290.468 622.087 291.382 619.083 290.416 614.933C289.549 611.203 288.863 607.432 288.081 603.682C286.138 594.372 286.092 585.032 288.854 575.945C290.309 571.155 289.006 568.579 284.874 566.174C258.655 550.91 232.537 535.469 206.384 520.089C193.451 512.483 180.478 504.945 167.608 497.234C164.434 495.332 162.277 495.504 159.306 498.058C121.965 530.161 65.0772 518.194 45.0512 474.162C27.9058 436.464 42.9861 393.067 79.8881 376.216C106.156 364.221 136.213 366.837 159.73 388.808C163.564 392.39 166.425 392.816 170.996 390.173C200.434 373.152 230.012 356.372 259.619 339.644C262.891 337.795 264.034 335.958 263.077 332.08C259.483 317.529 262.198 303.438 268.022 290.091C271.182 282.849 270.367 278.2 264.312 272.891C251.655 261.793 239.622 249.968 227.56 238.206C224.143 234.875 221.1 234.082 216.472 235.631C195.522 242.645 176.354 239.822 160.109 223.922C144.524 208.669 139.312 183.329 147.494 163.719C156.15 142.973 176.416 129.327 197.91 129.775C234.349 130.533 259.669 165.492 248.647 200.497C246.637 206.881 247.425 210.621 252.35 215.055C265.61 226.992 278.429 239.427 291.213 251.881C294.129 254.722 296.447 254.867 299.954 253.147C310.515 247.965 321.72 244.651 333.494 244.105C349.693 243.353 364.453 247.983 377.512 257.629C381.926 260.89 386.122 264.499 390.094 268.29C392.948 271.014 395.508 271.339 399.042 269.661C427.797 256.012 456.611 242.487 485.419 228.952C543.791 201.528 602.167 174.113 660.552 146.719C668.904 142.8 668.85 142.875 667.739 133.716C664.506 107.067 673.072 84.2888 691.141 65.0501ZM673.047 631.238C688.896 630.536 702.767 636.147 714.332 647.81C729.851 665.285 733.762 685.047 725.366 706.235C716.702 728.096 699.184 739.754 676.109 740.206C646.907 740.779 625.735 720.338 621.643 694.673C616.39 661.726 639.747 632.713 673.047 631.238ZM502.769 596.868C500.958 596.188 499.126 596.438 497.317 596.615C477.789 598.523 458.278 600.654 438.723 602.231C433.901 602.62 431.58 604.118 430.563 608.874C427.701 622.259 421.305 633.823 411.536 643.42C409.036 645.875 408.448 648.429 410.031 651.519C412.084 655.525 414.137 659.532 416.498 664.217C425.286 681.078 433.935 698.013 442.906 714.776C450.359 728.702 446.002 725.983 461.478 726.296C462.976 726.327 464.493 726.153 465.972 726.323C470.145 726.801 472.152 725.208 473.21 720.902C482.954 681.272 492.921 641.697 502.836 602.11C503.279 600.344 504.024 598.608 502.769 596.868ZM409.291 343.704C405.641 343.121 403.406 344.397 401.901 347.939C394.119 366.247 380.625 378.772 362.317 386.09C358.866 387.47 357.789 389.369 358.193 392.877C358.994 399.828 359.541 406.808 360.205 413.775C362.165 434.346 364.131 454.916 366.179 476.412C367.244 488.534 368.322 500.654 369.368 512.777C369.711 516.756 371.627 518.741 375.717 519.71C399.436 525.33 416.702 538.97 426.434 561.672C429.76 569.43 429.779 569.433 438.229 568.602C461.232 566.341 484.22 563.911 507.248 561.933C512.063 561.519 513.852 559.49 514.812 555.145C517.65 542.291 520.523 529.433 523.932 516.725C525.46 511.029 524.336 507.249 520.06 503.115C494.767 478.658 498.058 437.658 526.7 417.722C536.899 410.623 548.584 408.229 560.709 407.64C563.786 407.491 565.555 406.399 566.809 403.574C570.801 394.576 574.945 385.644 579.157 376.747C580.8 373.274 580.68 371.093 576.2 370.597C573.069 370.251 569.992 369.452 566.875 368.949C528.306 362.731 489.735 356.518 451.161 350.328C437.209 348.09 423.244 345.934 409.291 343.704ZM619.652 385.345C615.715 383.217 613.721 383.894 611.968 387.879C607.604 397.804 603.231 407.739 598.384 417.43C596.208 421.783 596.504 424.841 599.655 428.576C608.149 438.647 612.626 450.6 611.827 463.693C610.28 489.003 598.086 507.938 573.212 514.419C559.905 517.887 555.947 525.28 554.389 536.666C553.907 540.188 551.83 543.509 552.764 547.16C555.196 548.281 556.874 546.808 558.634 546.058C589.13 533.073 619.607 520.043 650.094 507.036C673.996 496.839 697.889 486.623 721.83 476.518C725.154 475.115 727.386 473.332 726.358 469.439C724.68 463.082 725.648 456.693 726.975 450.593C728.189 445.01 726.379 442.21 721.738 439.819C710.927 434.249 700.259 428.401 688.885 422.298C665.794 410.005 642.663 397.786 619.652 385.345ZM283.591 370.262C281.191 367.859 279.055 367.799 276.1 369.491C246.034 386.7 215.92 403.827 185.737 420.829C182.497 422.655 181.674 424.879 182.439 428.188C184.888 438.782 184.602 449.415 182.003 459.869C180.96 464.068 182.439 465.964 185.693 467.871C222.482 489.433 259.377 510.821 295.869 532.879C304.046 537.822 310.466 539.68 317.647 531.091C322.058 528.053 326.772 525.553 331.755 523.641C334.719 522.504 335.916 520.668 335.549 517.529C334.989 512.727 334.575 507.907 334.126 503.092C331.932 479.55 329.775 456.005 327.547 432.466C326.401 420.355 325.109 408.259 323.943 396.15C323.693 393.559 322.752 391.795 320.038 391.072C306.074 387.348 293.837 380.518 283.591 370.262ZM726.753 205.271C723.503 204.223 721.839 205.28 720.247 207.913C714.463 217.474 708.559 226.961 702.307 237.09C679.676 273.88 657.102 310.706 634.331 347.409C631.861 351.39 632.315 353.314 636.387 355.468C670.55 373.537 704.653 391.719 738.714 409.98C741.476 411.46 743.522 411.277 746.01 409.567C753.563 404.375 761.163 399.243 768.909 394.347C772.072 392.348 772.951 389.92 772.453 386.384C769.056 362.311 765.792 338.219 762.415 314.143C757.814 281.328 753.137 248.524 748.531 215.71C748.033 212.161 746.437 210.076 742.7 209.334C737.324 208.268 731.967 206.952 726.753 205.271ZM687.02 179.031C684.304 175.393 681.529 174.734 677.616 176.715C672.562 179.273 667.395 181.604 661.612 184.379C645.486 191.985 629.369 199.609 613.233 207.192C549.136 237.311 485.034 267.417 420.932 297.524C417.765 299.011 414.554 300.409 411.405 301.934C409.475 302.868 407.118 303.701 407.302 306.393C407.527 309.673 410.607 309.199 412.662 309.811C414.551 310.373 416.602 310.372 418.571 310.691C442.054 314.488 465.532 318.318 489.017 322.1C523.504 327.654 558.007 333.109 592.472 338.796C596.68 339.49 599.254 338.675 601.559 334.914C630.249 288.102 659.08 241.376 687.847 194.611C692.854 186.472 692.638 186.555 687.02 179.031ZM423.3 65.6731C459.001 50.7431 496.303 75.3329 498.277 111.379C499.467 133.124 491.162 150.309 472.491 161.539C453.689 172.848 434.5 172.082 415.351 160.805C397.896 148.667 389.38 132.039 390.914 111.357C392.493 90.0528 403.363 74.0108 423.3 65.6731Z" fill="url(#paint0_radial_527_9)"/>
<defs>
<radialGradient id="paint0_radial_527_9" cx="0" cy="0" r="1" gradientTransform="matrix(280.566 -502.769 503.475 282.451 455.934 455.769)" gradientUnits="userSpaceOnUse">
<stop/>
<stop offset="1" stop-color="#004083"/>
</radialGradient>
</defs>
</svg>
